<?xml version="1.0" encoding="UTF-8"?>
<svg version="1.1" xmlns="http://www.w3.org/2000/svg" width="512" height="512">
<path d="M0 0 C1.06586526 -0.00573832 1.06586526 -0.00573832 2.15326315 -0.01159257 C4.52840377 -0.02189099 6.90330122 -0.01793649 9.27845764 -0.01396179 C10.98372623 -0.01831 12.68899286 -0.02349352 14.39425659 -0.02944946 C19.02233697 -0.04283862 23.65033568 -0.04341825 28.27843165 -0.04088616 C32.1428091 -0.03981645 36.00717003 -0.04469982 39.87154394 -0.04949158 C48.98831421 -0.06058638 58.10504327 -0.06102426 67.22181702 -0.05497742 C76.62571669 -0.04893604 86.02946681 -0.06125288 95.43334097 -0.08254749 C103.50906228 -0.10016188 111.58473598 -0.10616512 119.66047579 -0.10290974 C124.48294012 -0.10109656 129.30529774 -0.1037366 134.12774467 -0.11762428 C138.66269504 -0.13019543 143.19741217 -0.12826528 147.73235893 -0.11521339 C149.39561542 -0.11284655 151.05888829 -0.11558618 152.72212601 -0.12383652 C154.99495287 -0.13429676 157.26699608 -0.12620979 159.53979492 -0.11352539 C160.8109059 -0.11369313 162.08201689 -0.11386087 163.39164639 -0.1140337 C169.45954673 0.5466272 173.00262426 3.17377825 177.16957092 7.48750305 C181.52274615 12.21911918 181.52274615 12.21911918 187.22401428 14.68647766 C189.40797893 14.35487858 189.40797893 14.35487858 191.55604553 13.75679016 C198.4188295 12.26180978 205.90911999 15.16306915 211.70448303 18.72944641 C219.95086905 24.66079195 225.64284779 32.01267979 227.32167053 42.23335266 C227.48728096 44.06989816 227.61576891 45.91049473 227.69276428 47.75288391 C227.73917053 48.58046204 227.78557678 49.40804016 227.83338928 50.26069641 C227.87979553 51.45372375 227.87979553 51.45372375 227.92713928 52.67085266 C229.35737162 56.75811146 232.38973814 59.00572994 235.58338928 61.82319641 C236.25934143 62.4359845 236.93529358 63.04877258 237.63172913 63.68013 C239.02355657 64.94154494 240.41925213 66.19870472 241.81874084 67.45161438 C244.72840583 70.06438917 247.59199253 72.72568376 250.45838928 75.38569641 C251.52565455 76.37055177 252.59336192 77.35492825 253.66151428 78.33882141 C254.18551819 78.82157532 254.70952209 79.30432922 255.24940491 79.80171204 C256.03347717 80.5239093 256.03347717 80.5239093 256.83338928 81.26069641 C258.9589019 83.21847437 261.08396986 85.17673223 263.20838928 87.13569641 C263.73674377 87.6228009 264.26509827 88.1099054 264.8094635 88.61177063 C269.72788084 93.15196182 274.6130038 97.72747553 279.49745178 102.30415344 C283.69105385 106.22354151 287.94486655 110.06084537 292.29432678 113.80757141 C294.62011595 116.00349418 294.82732535 117.20927936 295.20838928 120.44038391 C294.72194223 125.39606323 292.9162978 127.62131822 289.83338928 131.38569641 C288.7264176 132.79829946 287.61965773 134.21106851 286.51307678 135.62397766 C285.91720764 136.37243958 285.3213385 137.12090149 284.70741272 137.89204407 C281.39882902 142.07389386 278.18524896 146.32819073 274.95838928 150.57319641 C273.93938538 151.9076178 273.93938538 151.9076178 272.89979553 153.26899719 C267.8993934 159.82431564 262.9946939 166.44469889 258.12294006 173.09590149 C253.09914312 179.93846349 247.95361782 186.68407598 242.79432678 193.42475891 C238.41274603 199.15972368 234.09795971 204.93829204 229.83338928 210.76069641 C224.24832828 218.38596234 218.5445784 225.91352896 212.79872131 233.41816711 C208.36915583 239.2145057 204.01523371 245.06023568 199.70838928 250.94819641 C194.62176336 257.8991513 189.39341743 264.72101667 184.07850647 271.49848938 C179.33980077 277.56112873 174.76664805 283.73397778 170.22401428 289.94429016 C165.83107762 295.93820819 161.35098122 301.86028985 156.83338928 307.76069641 C151.76676119 314.38007915 146.75903469 321.03572848 141.83338928 327.76069641 C136.24676508 335.38809658 130.5406259 342.91714206 124.79432678 350.42475891 C119.83325032 356.91821421 114.96988154 363.47728127 110.14222717 370.07026672 C104.93461217 377.16433264 99.60617542 384.16354569 94.24940491 391.14546204 C93.61583069 391.97239563 92.98225647 392.79932922 92.32948303 393.65132141 C91.72346252 394.43442688 91.11744202 395.21753235 90.49305725 396.02436829 C88.83012203 398.20252441 88.83012203 398.20252441 87.50575256 400.38764954 C85.23243224 404.02570225 84.28885701 405.14869615 80.02088928 406.19819641 C78.44307678 406.22913391 78.44307678 406.22913391 76.83338928 406.26069641 C69.13810028 396.48163484 61.57408521 386.62562104 54.22743225 376.58174133 C49.83332951 370.58629453 45.35215022 364.66262979 40.83338928 358.76069641 C35.17972967 351.37437632 29.61868539 343.92874909 24.12245178 336.42475891 C19.76061896 330.48398208 15.3128438 324.61316381 10.83338928 318.76069641 C5.76686926 312.14122005 0.75928317 305.48549021 -4.16661072 298.76069641 C-11.69557987 288.48846494 -19.4249142 278.37305598 -27.16661072 268.26069641 C-35.49586894 257.38085194 -43.78095817 246.4783419 -51.8780365 235.42427063 C-56.23952202 229.4835202 -60.68729526 223.61298213 -65.16661072 217.76069641 C-70.82014467 210.37427849 -76.38131266 202.92875175 -81.87754822 195.42475891 C-86.23938104 189.48398208 -90.6871562 183.61316381 -95.16661072 177.76069641 C-100.81122873 170.38592728 -106.36491164 162.95304599 -111.85118103 155.45991516 C-117.1473969 148.24469263 -122.56900396 141.12754657 -128.01426697 134.02436829 C-128.65750916 133.18454407 -129.30075134 132.34471985 -129.96348572 131.47944641 C-130.53421814 130.73630188 -131.10495056 129.99315735 -131.69297791 129.22749329 C-134.92652083 124.91181705 -135.81197598 122.70020366 -135.16661072 117.26069641 C-132.69748281 113.55700455 -129.84742886 110.94263611 -126.49082947 108.05366516 C-122.21612256 104.33317727 -118.08952314 100.47340643 -113.97911072 96.57319641 C-107.27380031 90.23666344 -100.52788576 83.94847417 -93.73594666 77.70503235 C-92.1090636 76.20773301 -90.48509823 74.7073268 -88.86192322 73.20600891 C-88.03712463 72.44429382 -88.03712463 72.44429382 -87.19566345 71.66719055 C-86.10388892 70.65631208 -85.01479525 69.64252952 -83.92857361 68.62568665 C-81.3184666 66.19227857 -78.68417633 63.83984928 -75.90489197 61.60054016 C-70.61233777 57.57909484 -70.61233777 57.57909484 -67.55723572 51.95600891 C-67.56258221 49.69841966 -67.56258221 49.69841966 -67.89707947 47.47944641 C-68.69756816 40.88991631 -65.79754898 33.65552797 -62.16661072 28.26069641 C-55.82877767 20.40442419 -48.14680717 15.03306442 -38.04161072 13.38569641 C-34.16661072 13.26069641 -34.16661072 13.26069641 -32.13145447 13.85835266 C-29.43699096 14.59676281 -27.93467374 14.83368967 -25.16661072 14.26069641 C-20.88163867 11.30645284 -17.30486267 7.41122774 -13.78477478 3.60517883 C-9.61508474 0.14071247 -5.24632464 0.00847543 0 0 Z " fill="#42474B" transform="translate(176.16661071777344,52.73930358886719)"/>
<path d="M0 0 C2.05334273 0.45592144 4.10672955 0.91164437 6.16015625 1.3671875 C9.35114722 2.0869599 12.54105502 2.81116977 15.72998047 3.54003906 C32.32856057 7.31419417 45.66030537 9.16542691 62.421875 5.0625 C64.78632296 4.51243859 67.1509072 3.96296268 69.515625 3.4140625 C71.23845703 3.00655762 71.23845703 3.00655762 72.99609375 2.59082031 C77.62935599 1.49830256 82.27064368 0.45048952 86.921875 -0.5625 C87.64777832 -0.72975586 88.37368164 -0.89701172 89.12158203 -1.06933594 C101.70738395 -3.80474042 101.70738395 -3.80474042 107.48046875 -0.19921875 C110.90665195 3.15869972 113.62900809 7.07356115 116.359375 11 C117.4984439 12.60825286 118.63777459 14.21632032 119.77734375 15.82421875 C120.35661621 16.64712402 120.93588867 17.4700293 121.53271484 18.31787109 C123.82820992 21.56383964 126.15959334 24.78294224 128.49536133 28 C130.13486597 30.26145157 131.76321928 32.53061443 133.390625 34.80078125 C135.12309505 37.21105209 136.88407383 39.57032966 138.703125 41.91796875 C141.43128081 45.49596675 143.1547249 47.81744931 143.796875 52.3125 C141.8242199 56.9153619 138.81541155 59.83443907 135.23046875 63.28515625 C133.104666 65.68288308 133.104666 65.68288308 132.70703125 68.69921875 C133.49593304 72.86315735 135.61873151 75.4211432 138.296875 78.5625 C138.79292236 79.17085693 139.28896973 79.77921387 139.80004883 80.40600586 C142.10210663 83.22325612 144.45329691 85.99665457 146.80859375 88.76953125 C147.52660156 89.62933594 148.24460937 90.48914063 148.984375 91.375 C149.94923828 92.49068359 149.94923828 92.49068359 150.93359375 93.62890625 C152.64835944 96.37547938 152.94858603 97.63234618 152.296875 100.8125 C150.2109375 103.234375 150.2109375 103.234375 147.296875 105.8125 C146.23931205 106.81468268 145.18475276 107.82004207 144.1328125 108.828125 C142.98080344 109.90799876 141.82709563 110.98606258 140.671875 112.0625 C140.06303467 112.63097656 139.45419434 113.19945312 138.8269043 113.78515625 C134.22673327 118.04237159 129.47753967 121.99465846 124.50390625 125.8125 C121.37963198 128.64370075 119.54003207 131.31882084 118.859375 135.5 C119.35724099 139.26955679 120.53468266 142.20855195 122.0078125 145.6953125 C123.6210102 149.59631785 125.10239577 153.53389723 126.546875 157.5 C126.81709473 158.21260986 127.08731445 158.92521973 127.36572266 159.65942383 C129.30499446 165.02889956 130.50966218 169.85943084 128.24609375 175.37109375 C125.57079213 178.72192244 122.47124149 181.23370532 119.109375 183.875 C118.40683594 184.4321167 117.70429688 184.9892334 116.98046875 185.56323242 C115.50402858 186.72918011 114.02430693 187.89098324 112.54150391 189.04882812 C110.33031376 190.78622617 108.14705955 192.55454711 105.96484375 194.328125 C104.57672573 195.42860487 103.18744373 196.52761848 101.796875 197.625 C101.16370361 198.14650635 100.53053223 198.6680127 99.87817383 199.20532227 C96.71299786 201.65108349 94.27062958 203.15497077 90.21484375 203.36328125 C85.85528004 202.75042135 83.70216105 201.69197697 80.109375 199.1875 C78.9117168 198.36681018 77.71378047 197.54652617 76.515625 196.7265625 C75.85820312 196.26797852 75.20078125 195.80939453 74.5234375 195.33691406 C71.98787345 193.60094236 69.41243905 191.93592959 66.828125 190.2734375 C64.92169417 189.03673704 63.01544376 187.79975842 61.109375 186.5625 C59.72745972 185.67763916 59.72745972 185.67763916 58.31762695 184.77490234 C57.45097412 184.20465332 56.58432129 183.6344043 55.69140625 183.046875 C54.52895386 182.29229004 54.52895386 182.29229004 53.34301758 181.52246094 C50.21740398 178.91038629 48.55284151 176.15781234 47.79296875 172.1640625 C47.69349842 167.53537628 47.64182544 163.85587878 50.609375 160.125 C62.05916262 148.8125 62.05916262 148.8125 67.296875 148.8125 C67.626875 146.5025 67.956875 144.1925 68.296875 141.8125 C65.89031505 140.60922003 64.38243714 140.68564377 61.6953125 140.68310547 C60.74092285 140.67995331 59.7865332 140.67680115 58.80322266 140.67355347 C57.76987793 140.6755777 56.7365332 140.67760193 55.671875 140.6796875 C54.61403809 140.67873077 53.55620117 140.67777405 52.46630859 140.67678833 C50.22688742 140.67610699 47.98746427 140.67795807 45.74804688 140.68212891 C42.31115299 140.68747778 38.8743898 140.68218233 35.4375 140.67578125 C33.26562471 140.67644204 31.0937495 140.67772322 28.921875 140.6796875 C27.88853027 140.67766327 26.85518555 140.67563904 25.79052734 140.67355347 C24.8361377 140.67670563 23.88174805 140.67985779 22.8984375 140.68310547 C22.05619629 140.68390106 21.21395508 140.68469666 20.34619141 140.68551636 C18.23099037 140.68250839 18.23099037 140.68250839 16.296875 141.8125 C16.47817315 145.25043339 16.47817315 145.25043339 17.296875 148.8125 C19.06146497 149.87843476 19.06146497 149.87843476 21.296875 150.8125 C23.15336927 152.0492528 24.98519822 153.32347946 26.796875 154.625 C27.7353125 155.29144531 28.67375 155.95789063 29.640625 156.64453125 C33.17623981 159.53021687 35.9193454 161.90542033 36.828125 166.49609375 C36.8178125 167.40488281 36.8075 168.31367188 36.796875 169.25 C36.81234375 170.60931641 36.81234375 170.60931641 36.828125 171.99609375 C35.93581052 176.72667272 33.43547474 179.9148461 29.69067383 182.8671875 C28.23697388 183.76824219 28.23697388 183.76824219 26.75390625 184.6875 C25.14225586 185.70070313 25.14225586 185.70070313 23.49804688 186.734375 C22.37978516 187.42015625 21.26152344 188.1059375 20.109375 188.8125 C17.90712117 190.18680972 15.70529101 191.56179861 13.50390625 192.9375 C12.4473584 193.59113525 11.39081055 194.24477051 10.30224609 194.91821289 C6.87667715 197.07735094 3.53998757 199.34542194 0.23022461 201.67749023 C-2.58430319 203.32981246 -4.95700593 203.9475078 -8.20703125 203.7109375 C-13.64045973 201.75524337 -17.75164099 197.24539973 -21.93554688 193.39111328 C-24.88571308 190.75633777 -28.01050911 188.35309204 -31.140625 185.9375 C-33.33441834 184.2370373 -35.52207866 182.52928073 -37.703125 180.8125 C-38.26660645 180.37518555 -38.83008789 179.93787109 -39.41064453 179.48730469 C-43.58846001 176.15649497 -43.58846001 176.15649497 -44.703125 172.8125 C-44.97745711 167.88767244 -44.41194995 164.11217417 -42.76953125 159.4765625 C-42.36798828 158.33058594 -41.96644531 157.18460938 -41.55273438 156.00390625 C-41.12798828 154.82699219 -40.70324219 153.65007812 -40.265625 152.4375 C-39.84474609 151.23738281 -39.42386719 150.03726563 -38.99023438 148.80078125 C-35.86733129 139.97670629 -35.86733129 139.97670629 -34.703125 138.8125 C-34.22379559 134.6902671 -34.63700048 131.86378507 -37.13671875 128.484375 C-39.96118922 125.46972821 -43.24688901 123.01213562 -46.48046875 120.453125 C-50.18982776 117.47079572 -53.66409346 114.24801641 -57.140625 111 C-57.73149902 110.44884521 -58.32237305 109.89769043 -58.93115234 109.32983398 C-60.03875492 108.29119893 -61.14129459 107.24712849 -62.23779297 106.19677734 C-63.49641311 105.00777764 -64.80093738 103.86770523 -66.11328125 102.73828125 C-67.703125 100.8125 -67.703125 100.8125 -68.1953125 98.375 C-67.54088671 94.96783082 -66.1168773 93.41011506 -63.828125 90.8125 C-63.01730469 89.85988281 -62.20648438 88.90726562 -61.37109375 87.92578125 C-60.72213135 87.17095459 -60.72213135 87.17095459 -60.06005859 86.40087891 C-57.70207673 83.64070798 -55.4066212 80.83597071 -53.140625 78 C-52.69928223 77.47341797 -52.25793945 76.94683594 -51.80322266 76.40429688 C-49.77782327 73.85182693 -48.72908753 71.95657378 -48.1484375 68.734375 C-49.04984568 63.98611221 -52.25838107 61.724108 -55.63671875 58.47265625 C-58.31743585 55.0216764 -58.86479212 53.19136931 -58.703125 48.8125 C-57.21622924 45.73456044 -55.19391673 43.17217533 -53.078125 40.5 C-51.87181054 38.90799541 -50.66609858 37.31553414 -49.4609375 35.72265625 C-48.83735352 34.91199707 -48.21376953 34.10133789 -47.57128906 33.26611328 C-44.61484531 29.38317291 -41.79116156 25.40728449 -38.953125 21.4375 C-36.87439065 18.55915682 -34.7890824 15.68561113 -32.703125 12.8125 C-32.24856934 12.18456543 -31.79401367 11.55663086 -31.32568359 10.90966797 C-30.10387696 9.22652479 -28.87403079 7.54965384 -27.640625 5.875 C-26.63322266 4.50021484 -26.63322266 4.50021484 -25.60546875 3.09765625 C-18.71401926 -5.18057363 -9.44377769 -2.19561614 0 0 Z " fill="#FEFEFE" transform="translate(213.703125,108.1875)"/>
<path d="M0 0 C9.25411373 3.47029265 20.96909566 10.96909566 28 18 C28.72190804 21.28869216 28.44706894 23.27252095 26.6796875 26.1484375 C20.36159885 34.44978268 13.15825722 42.61391426 3 46 C-6.32886776 46.84305323 -12.28627612 45.82763095 -19.53515625 39.94140625 C-24.13765462 35.92184582 -28.17674225 31.75010811 -32 27 C-32.99 26.34 -33.98 25.68 -35 25 C-34.62892616 18.56805347 -34.62892616 18.56805347 -31.76513672 15.98144531 C-27.29537239 12.7784957 -22.73536045 9.74642978 -18.125 6.75 C-16.67287109 5.77546875 -16.67287109 5.77546875 -15.19140625 4.78125 C-6.08853538 -1.11394256 -6.08853538 -1.11394256 0 0 Z " fill="#FDFDFD" transform="translate(259,297)"/>
<path d="M0 0 C0.8996347 0.00091644 1.79926941 0.00183289 2.72616577 0.0027771 C4.62413828 0.00881038 6.52210139 0.02454824 8.41992188 0.04931641 C11.33238587 0.0858929 14.24358002 0.09033526 17.15625 0.08984375 C19.00001104 0.09967239 20.84376345 0.11132829 22.6875 0.125 C23.56145416 0.12722565 24.43540833 0.12945129 25.33584595 0.13174438 C31.47877713 0.22877713 31.47877713 0.22877713 33.7109375 2.4609375 C33.37089091 7.75345758 30.64620651 10.11861515 26.9453125 13.58984375 C21.04643161 18.52964086 16.19809862 19.90594071 8.51953125 19.89453125 C4.87546757 19.33195675 2.05064101 18.0172641 -1.2890625 16.4609375 C-2.58190479 20.64807545 -3.87312618 24.83571156 -5.1640625 29.0234375 C-5.52886719 30.20486328 -5.89367187 31.38628906 -6.26953125 32.60351562 C-7.99655105 38.2084799 -9.71287299 43.81154247 -11.2890625 49.4609375 C-11.9490625 49.4609375 -12.6090625 49.4609375 -13.2890625 49.4609375 C-13.39047713 43.12562735 -13.46053364 36.79052648 -13.50878906 30.45458984 C-13.52890526 28.29923683 -13.55620175 26.14393839 -13.59082031 23.98876953 C-13.63933736 20.89081355 -13.66203123 17.79357904 -13.6796875 14.6953125 C-13.70033264 13.73163757 -13.72097778 12.76796265 -13.74224854 11.77508545 C-13.74354184 7.91973204 -13.73004278 5.25834081 -11.84521484 1.85009766 C-7.94759004 -0.26809577 -4.36878233 -0.07217324 0 0 Z " fill="#464B4F" transform="translate(292.2890625,175.5390625)"/>
<path d="M0 0 C0.89772125 -0.0066568 1.7954425 -0.0133136 2.72036743 -0.02017212 C4.62182564 -0.03030833 6.52331949 -0.03498884 8.42480469 -0.03466797 C11.33328028 -0.03903505 14.24023123 -0.07532669 17.1484375 -0.11328125 C18.99478647 -0.11915043 20.84114266 -0.12311915 22.6875 -0.125 C23.5574057 -0.13937103 24.4273114 -0.15374207 25.32357788 -0.16854858 C28.92896108 -0.14129758 31.33373554 -0.01341163 34.53271484 1.72509766 C36.83066406 5.88036802 36.4671605 9.90376784 36.3671875 14.5703125 C36.36152771 15.56347473 36.35586792 16.55663696 36.35003662 17.57989502 C36.32766276 20.74906809 36.27746356 23.9171067 36.2265625 27.0859375 C36.20649885 29.23566074 36.18824784 31.38540173 36.171875 33.53515625 C36.12779489 38.80246979 36.06087283 44.06912259 35.9765625 49.3359375 C35.3165625 49.3359375 34.6565625 49.3359375 33.9765625 49.3359375 C29.0265625 33.0009375 29.0265625 33.0009375 23.9765625 16.3359375 C21.6665625 17.3259375 19.3565625 18.3159375 16.9765625 19.3359375 C9.9097468 20.42692017 3.78654537 19.57533557 -2.0234375 15.3359375 C-9.44891604 9.11774831 -9.44891604 9.11774831 -10.87109375 4.70703125 C-10.92136719 3.92457031 -10.97164062 3.14210937 -11.0234375 2.3359375 C-7.91969646 -0.76780354 -4.16706164 0.01061201 0 0 Z " fill="#44494D" transform="translate(197.0234375,175.6640625)"/>
<path d="M0 0 C0.66 0 1.32 0 2 0 C2 14.85 2 29.7 2 45 C1.34 45 0.68 45 0 45 C-0.84139699 39.28869924 -1.08174284 33.88738778 -0.87890625 28.125 C-0.85529526 27.31506592 -0.83168427 26.50513184 -0.80735779 25.6706543 C-0.731503 23.11355542 -0.64714858 20.55682132 -0.5625 18 C-0.50920076 16.2539234 -0.45646108 14.50782963 -0.40429688 12.76171875 C-0.27599544 8.50758668 -0.14007677 4.25375996 0 0 Z " fill="#595E61" transform="translate(231,180)"/>
</svg>
